<svg id="svg" version="1.1" xmlns="http://www.w3.org/2000/svg" xmlns:xlink="http://www.w3.org/1999/xlink" width="400" height="99" viewBox="0, 0, 400,99"><g id="svgg"><path id="path0" d="M7.500 49.833 L 7.500 92.833 103.667 92.833 L 199.833 92.833 199.833 49.833 L 199.833 6.833 103.667 6.833 L 7.500 6.833 7.500 49.833 M32.461 18.375 C 32.553 18.490,32.677 18.921,32.737 19.333 C 32.796 19.746,32.917 20.552,33.005 21.125 C 33.094 21.698,33.245 22.673,33.340 23.292 C 33.435 23.910,33.582 24.829,33.667 25.333 C 33.751 25.837,33.898 26.756,33.994 27.375 C 34.089 27.994,34.240 28.969,34.330 29.542 C 34.420 30.115,34.684 31.858,34.917 33.417 C 35.149 34.975,35.410 36.662,35.496 37.167 C 35.583 37.671,35.732 38.590,35.827 39.208 C 35.999 40.326,36.196 41.593,36.519 43.667 C 36.612 44.262,36.753 45.125,36.832 45.583 C 36.911 46.042,37.070 47.035,37.185 47.792 C 37.430 49.411,37.579 49.523,37.733 48.209 C 37.795 47.682,38.108 45.638,38.429 43.667 C 38.750 41.696,39.236 38.696,39.509 37.000 C 39.782 35.304,40.079 33.485,40.169 32.958 C 40.470 31.204,40.652 30.095,40.833 28.917 C 40.932 28.275,41.085 27.319,41.173 26.792 C 41.801 23.037,41.936 22.205,42.167 20.667 C 42.271 19.979,42.429 19.135,42.518 18.790 L 42.681 18.163 49.966 18.207 L 57.250 18.250 57.333 45.583 C 57.379 60.617,57.465 72.804,57.523 72.667 C 57.582 72.529,57.716 71.779,57.823 71.000 C 57.929 70.221,58.087 69.115,58.175 68.542 C 58.507 66.363,58.685 65.220,58.830 64.333 C 58.912 63.829,59.062 62.854,59.162 62.167 C 59.263 61.479,59.417 60.448,59.506 59.875 C 59.594 59.302,59.742 58.346,59.833 57.750 C 59.925 57.154,60.075 56.179,60.167 55.583 C 60.332 54.508,60.499 53.404,60.833 51.167 C 61.219 48.589,61.340 47.789,61.498 46.792 C 61.588 46.219,61.852 44.438,62.083 42.833 C 62.315 41.229,62.578 39.467,62.668 38.917 C 62.758 38.367,62.950 37.092,63.096 36.083 C 63.242 35.075,63.424 33.837,63.502 33.333 C 63.579 32.829,63.729 31.854,63.833 31.167 C 63.938 30.479,64.094 29.467,64.180 28.917 C 64.266 28.367,64.409 27.392,64.498 26.750 C 64.587 26.108,64.814 24.571,65.002 23.333 C 65.190 22.096,65.427 20.521,65.527 19.833 C 65.628 19.146,65.785 18.490,65.876 18.375 C 66.060 18.142,80.752 18.064,81.104 18.294 C 81.207 18.362,81.419 19.279,81.575 20.333 C 81.732 21.387,81.929 22.700,82.015 23.250 C 82.100 23.800,82.247 24.775,82.340 25.417 C 82.507 26.555,82.677 27.677,83.005 29.792 C 83.094 30.365,83.242 31.321,83.333 31.917 C 83.425 32.512,83.575 33.487,83.667 34.083 C 83.758 34.679,83.902 35.635,83.987 36.208 C 84.141 37.255,84.401 38.962,84.667 40.667 C 84.745 41.171,84.895 42.146,85.000 42.833 C 85.105 43.521,85.255 44.496,85.333 45.000 C 85.412 45.504,85.556 46.442,85.653 47.083 C 85.750 47.725,85.983 49.262,86.171 50.500 C 86.358 51.737,86.703 54.025,86.936 55.583 C 87.170 57.142,87.430 58.867,87.515 59.417 C 87.600 59.967,87.743 60.942,87.833 61.583 C 87.923 62.225,88.078 63.275,88.177 63.917 C 88.571 66.473,88.649 66.985,88.910 68.750 C 89.058 69.758,89.209 70.658,89.244 70.750 C 89.278 70.842,89.323 60.792,89.342 48.417 C 89.361 36.042,89.423 24.192,89.480 22.083 L 89.583 18.250 96.917 18.256 C 105.110 18.263,105.283 18.282,108.439 19.569 C 111.315 20.742,114.555 23.409,116.404 26.126 C 117.512 27.754,117.490 28.143,116.651 21.583 C 116.569 20.942,116.453 19.909,116.393 19.290 L 116.285 18.162 122.183 18.206 L 128.082 18.250 128.196 18.917 C 128.259 19.283,128.395 20.221,128.498 21.000 C 128.601 21.779,128.760 22.942,128.850 23.583 C 128.941 24.225,129.081 25.238,129.163 25.833 C 129.244 26.429,129.393 27.517,129.494 28.250 C 129.886 31.088,129.983 31.791,130.148 33.000 C 130.242 33.688,130.398 34.813,130.494 35.500 C 130.848 38.031,131.324 41.485,131.665 44.000 C 131.858 45.421,132.158 47.596,132.330 48.833 C 132.503 50.071,132.735 51.871,132.846 52.833 C 133.105 55.093,133.222 55.178,133.477 53.293 C 133.593 52.444,133.754 51.300,133.837 50.750 C 134.040 49.402,134.276 47.710,134.498 46.000 C 134.600 45.221,134.750 44.133,134.833 43.583 C 134.916 43.033,135.064 41.983,135.161 41.250 C 135.258 40.517,135.521 38.567,135.746 36.917 C 135.970 35.267,136.311 32.754,136.503 31.333 C 136.695 29.912,136.998 27.700,137.176 26.417 C 137.355 25.133,137.581 23.483,137.678 22.750 C 137.776 22.017,137.926 21.010,138.011 20.514 C 138.097 20.017,138.167 19.376,138.167 19.089 C 138.167 18.802,138.257 18.477,138.367 18.367 C 138.657 18.077,170.343 18.077,170.633 18.367 C 170.972 18.705,170.914 29.396,170.571 29.738 C 170.345 29.964,169.641 30.000,165.405 30.000 L 160.500 30.000 160.500 36.816 C 160.500 42.990,160.526 43.641,160.774 43.736 C 160.925 43.794,163.187 43.836,165.800 43.828 C 169.542 43.817,170.581 43.861,170.690 44.032 C 170.884 44.338,170.866 55.024,170.670 55.333 C 170.538 55.543,169.717 55.597,165.548 55.667 L 160.583 55.750 160.540 62.708 L 160.496 69.667 165.465 69.667 C 169.107 69.667,170.487 69.720,170.633 69.867 C 170.920 70.153,170.920 80.847,170.633 81.133 C 170.288 81.479,149.068 81.416,148.934 81.070 C 148.879 80.925,148.826 68.756,148.816 54.028 C 148.806 37.274,148.741 27.468,148.645 27.833 C 148.560 28.154,148.421 28.867,148.336 29.417 C 148.251 29.967,148.100 30.904,148.000 31.500 C 147.900 32.096,147.750 33.033,147.667 33.583 C 147.583 34.133,147.436 35.052,147.341 35.625 C 147.245 36.198,147.088 37.135,146.993 37.708 C 146.897 38.281,146.750 39.200,146.667 39.750 C 146.509 40.787,146.390 41.540,145.848 44.917 C 145.672 46.017,145.257 48.642,144.927 50.750 C 143.943 57.027,143.835 57.708,143.670 58.667 C 143.584 59.171,143.437 60.071,143.345 60.667 C 143.252 61.262,143.027 62.688,142.845 63.833 C 142.320 67.124,142.041 68.883,141.574 71.833 C 141.335 73.346,140.995 75.483,140.819 76.583 C 140.642 77.683,140.422 79.103,140.329 79.737 C 140.236 80.372,140.077 80.990,139.976 81.112 C 139.715 81.426,126.790 81.439,126.543 81.125 C 126.408 80.953,125.882 78.070,124.983 72.583 C 124.908 72.125,124.769 71.281,124.673 70.708 C 124.578 70.135,124.429 69.235,124.342 68.708 C 124.255 68.181,124.101 67.300,124.000 66.750 C 123.899 66.200,123.743 65.300,123.652 64.750 C 123.562 64.200,123.416 63.319,123.327 62.792 C 123.239 62.265,123.096 61.402,123.009 60.875 C 122.922 60.348,122.693 59.017,122.500 57.917 C 122.307 56.817,122.082 55.504,121.999 55.000 C 121.917 54.496,121.509 52.040,121.092 49.543 C 120.675 47.046,120.333 44.852,120.333 44.668 C 120.333 44.484,120.258 44.333,120.167 44.333 C 120.075 44.333,120.000 44.526,120.000 44.762 C 120.000 47.464,117.560 52.506,114.889 55.323 L 113.361 56.935 114.362 60.343 C 116.519 67.692,117.031 69.438,117.192 70.000 C 117.628 71.519,119.036 76.297,119.158 76.667 C 119.233 76.896,119.377 77.383,119.478 77.750 C 119.579 78.117,119.813 78.898,119.998 79.486 C 120.182 80.074,120.333 80.730,120.333 80.944 L 120.333 81.333 114.680 81.333 L 109.026 81.333 108.855 80.792 C 108.761 80.494,108.450 79.350,108.163 78.250 C 107.309 74.977,106.660 72.516,105.833 69.417 C 105.650 68.729,105.350 67.604,105.167 66.917 C 104.271 63.558,104.124 63.001,103.847 61.917 L 103.548 60.750 102.502 60.781 C 101.926 60.797,101.388 60.878,101.306 60.961 C 101.221 61.046,101.160 65.348,101.164 70.952 C 101.168 76.364,101.125 80.915,101.068 81.063 C 100.930 81.423,79.494 81.484,79.207 81.125 C 79.116 81.010,78.998 80.504,78.946 80.000 C 78.851 79.083,78.653 77.611,78.330 75.417 C 78.235 74.775,78.112 73.800,78.057 73.250 C 77.883 71.531,78.251 71.655,73.456 71.705 L 69.260 71.750 69.063 73.000 C 68.955 73.688,68.663 75.750,68.414 77.583 C 68.165 79.417,67.886 81.010,67.794 81.125 C 67.509 81.478,45.737 81.424,45.601 81.070 C 45.546 80.925,45.494 74.718,45.486 67.278 C 45.474 55.215,45.447 53.858,45.235 54.750 C 45.050 55.534,43.647 63.777,42.476 70.958 C 42.398 71.440,42.269 72.227,42.191 72.708 C 41.391 77.615,40.772 80.954,40.631 81.125 C 40.430 81.368,34.580 81.430,34.432 81.191 C 34.347 81.054,33.976 79.107,33.664 77.167 C 33.583 76.662,33.434 75.800,33.333 75.250 C 33.233 74.700,33.079 73.819,32.992 73.292 C 32.905 72.765,32.762 71.902,32.675 71.375 C 32.588 70.848,32.434 69.967,32.333 69.417 C 32.233 68.867,32.083 68.004,32.000 67.500 C 31.917 66.996,31.767 66.133,31.666 65.583 C 31.565 65.033,31.417 64.208,31.338 63.750 C 31.258 63.292,31.112 62.448,31.013 61.875 C 30.914 61.302,30.762 60.402,30.675 59.875 C 30.280 57.480,29.810 54.866,29.678 54.333 C 29.593 53.989,29.527 59.312,29.517 67.342 C 29.504 77.671,29.452 80.981,29.300 81.133 C 29.014 81.420,18.153 81.420,17.867 81.133 C 17.568 80.835,17.576 18.398,17.875 18.277 C 18.380 18.073,32.293 18.167,32.461 18.375 M184.000 43.917 L 184.000 69.667 188.833 69.667 C 193.324 69.667,193.667 69.687,193.669 69.958 C 193.706 74.311,193.651 81.057,193.578 81.175 C 193.423 81.426,172.785 81.385,172.533 81.133 C 172.315 80.915,172.227 18.496,172.444 18.278 C 172.506 18.217,175.131 18.167,178.278 18.167 L 184.000 18.167 184.000 43.917 M101.167 39.605 L 101.167 49.543 101.875 49.435 C 110.669 48.104,110.436 29.703,101.625 29.668 L 101.167 29.667 101.167 39.605 M73.454 36.889 C 73.388 37.057,73.333 37.460,73.333 37.786 C 73.333 38.112,73.262 38.837,73.174 39.397 C 73.086 39.958,72.933 41.167,72.834 42.083 C 72.735 43.000,72.585 44.313,72.501 45.000 C 72.315 46.528,72.167 47.809,71.416 54.417 C 71.093 57.258,70.784 59.977,70.729 60.458 L 70.628 61.333 73.666 61.333 L 76.703 61.333 76.613 60.958 C 76.564 60.752,76.482 60.246,76.431 59.833 C 76.270 58.537,75.696 53.770,75.085 48.667 C 74.762 45.962,74.428 43.188,74.344 42.500 C 74.259 41.813,74.105 40.500,74.001 39.583 C 73.722 37.121,73.600 36.520,73.454 36.889 " stroke="none" fill="#ec2c24" fill-rule="evenodd"></path><path id="path1" d="M18.113 18.443 C 18.051 18.505,18.000 32.606,18.000 49.778 L 18.000 81.000 23.582 81.000 L 29.165 81.000 29.207 66.458 C 29.248 52.766,29.323 50.570,29.684 52.534 C 29.848 53.423,30.284 55.954,31.673 64.083 C 32.393 68.300,33.254 73.325,33.585 75.250 C 33.917 77.175,34.252 79.179,34.331 79.702 C 34.535 81.070,34.358 81.000,37.590 81.000 C 40.469 81.000,40.494 80.997,40.564 80.625 C 40.603 80.419,40.719 79.725,40.823 79.083 C 40.926 78.442,41.079 77.542,41.164 77.083 C 41.249 76.625,41.396 75.781,41.492 75.208 C 41.588 74.635,41.745 73.698,41.841 73.125 C 41.937 72.552,42.083 71.708,42.167 71.250 C 42.308 70.471,42.414 69.849,42.833 67.333 C 42.925 66.783,43.075 65.883,43.167 65.333 C 43.426 63.775,43.679 62.320,43.832 61.500 C 43.909 61.087,44.059 60.188,44.167 59.500 C 44.274 58.813,44.427 57.913,44.507 57.500 C 44.587 57.087,44.810 55.775,45.003 54.583 C 45.745 49.998,45.798 50.792,45.817 66.875 L 45.833 81.000 56.726 81.000 L 67.620 81.000 67.816 79.708 C 68.026 78.324,68.201 77.088,68.506 74.833 C 68.612 74.054,68.786 72.967,68.893 72.417 L 69.087 71.417 73.462 71.372 L 77.838 71.328 77.994 71.706 C 78.079 71.913,78.342 73.546,78.577 75.333 C 78.812 77.121,79.089 79.127,79.192 79.792 L 79.379 81.000 90.106 81.000 L 100.833 81.000 100.836 71.042 C 100.839 60.029,100.761 60.735,101.990 60.502 C 103.897 60.140,103.457 59.256,105.757 68.083 C 106.736 71.842,107.647 75.329,107.781 75.833 C 108.637 79.055,108.877 79.972,108.981 80.417 L 109.097 80.917 114.644 80.961 C 119.943 81.003,120.186 80.991,120.094 80.701 C 119.942 80.221,118.150 74.137,117.998 73.583 C 117.923 73.308,117.623 72.296,117.333 71.333 C 116.745 69.381,116.590 68.849,116.363 68.000 C 116.277 67.679,116.096 67.079,115.960 66.667 C 115.825 66.254,115.618 65.579,115.500 65.167 C 115.382 64.754,115.175 64.079,115.040 63.667 C 114.904 63.254,114.728 62.673,114.647 62.375 C 114.501 61.838,114.280 61.047,114.006 60.083 C 113.927 59.808,113.678 58.965,113.451 58.210 L 113.040 56.836 114.199 55.710 C 117.590 52.417,119.145 49.029,119.942 43.204 C 120.044 42.458,120.262 42.657,120.399 43.620 C 120.549 44.682,120.437 44.007,123.321 61.167 C 125.814 75.995,126.016 77.205,126.317 79.125 C 126.400 79.652,126.521 80.290,126.585 80.542 L 126.703 81.000 133.261 81.000 L 139.818 81.000 139.909 80.458 C 139.959 80.160,140.151 78.942,140.335 77.750 C 140.519 76.558,140.742 75.171,140.829 74.667 C 140.916 74.162,141.068 73.225,141.167 72.583 C 141.265 71.942,141.415 71.004,141.500 70.500 C 141.585 69.996,141.735 69.058,141.833 68.417 C 141.932 67.775,142.082 66.837,142.167 66.333 C 142.252 65.829,142.404 64.892,142.506 64.250 C 142.740 62.780,142.956 61.436,143.156 60.208 C 143.242 59.681,143.399 58.688,143.504 58.000 C 143.609 57.313,143.757 56.413,143.833 56.000 C 143.909 55.587,144.058 54.688,144.163 54.000 C 144.268 53.313,144.425 52.319,144.510 51.792 C 144.795 50.045,145.183 47.628,145.666 44.583 C 145.855 43.392,146.084 41.967,146.174 41.417 C 146.265 40.867,146.862 37.091,147.502 33.027 C 148.680 25.543,148.788 25.011,149.018 25.594 C 149.087 25.772,149.148 38.292,149.154 53.417 L 149.163 80.917 159.790 80.917 L 170.417 80.917 170.461 75.461 L 170.505 70.005 165.461 69.961 L 160.417 69.917 160.373 62.627 L 160.330 55.338 165.373 55.294 L 170.417 55.250 170.417 49.667 L 170.417 44.083 165.375 44.039 L 160.333 43.995 160.333 36.833 L 160.333 29.672 165.375 29.627 L 170.417 29.583 170.417 24.000 L 170.417 18.417 154.833 18.371 C 137.122 18.319,138.553 18.239,138.422 19.292 C 138.369 19.727,138.246 20.646,138.151 21.333 C 137.862 23.410,137.659 24.859,137.498 26.000 C 137.414 26.596,137.265 27.683,137.167 28.417 C 137.068 29.150,136.918 30.238,136.833 30.833 C 136.655 32.081,136.247 35.031,135.829 38.083 C 135.729 38.817,135.580 39.867,135.498 40.417 C 135.416 40.967,135.271 42.017,135.175 42.750 C 135.079 43.483,134.852 45.133,134.671 46.417 C 134.490 47.700,134.152 50.175,133.921 51.917 C 133.175 57.544,133.171 57.539,132.168 49.833 C 132.067 49.054,131.916 47.967,131.833 47.417 C 131.750 46.867,131.600 45.779,131.499 45.000 C 131.397 44.221,131.244 43.096,131.158 42.500 C 131.071 41.904,130.400 36.917,129.665 31.417 C 128.318 21.326,128.050 19.392,127.906 18.708 L 127.827 18.333 122.257 18.333 C 119.193 18.333,116.651 18.391,116.607 18.461 C 116.530 18.586,116.630 19.592,117.007 22.500 C 117.108 23.279,117.256 24.442,117.336 25.083 C 117.801 28.811,117.816 28.783,116.500 26.713 C 114.471 23.521,110.777 20.554,107.417 19.416 C 104.562 18.450,102.871 18.297,95.750 18.362 L 89.750 18.417 89.708 45.792 C 89.670 70.593,89.606 74.593,89.280 72.625 C 89.231 72.327,89.153 71.896,89.107 71.667 C 89.029 71.277,88.936 70.670,88.490 67.625 C 88.392 66.960,88.247 66.004,88.167 65.500 C 88.086 64.996,87.936 64.021,87.833 63.333 C 87.730 62.646,87.580 61.671,87.500 61.167 C 87.420 60.663,87.270 59.688,87.167 59.000 C 87.064 58.313,86.913 57.337,86.833 56.833 C 86.753 56.329,86.605 55.354,86.504 54.667 C 86.298 53.252,86.077 51.816,85.833 50.292 C 85.690 49.399,82.510 28.171,81.990 24.642 C 81.891 23.968,81.739 22.967,81.653 22.417 C 81.568 21.867,81.425 20.871,81.336 20.204 C 81.057 18.118,81.940 18.323,73.458 18.373 L 66.097 18.417 65.971 19.000 C 65.902 19.321,65.765 20.146,65.667 20.833 C 65.570 21.521,65.419 22.533,65.333 23.083 C 65.247 23.633,65.097 24.608,65.000 25.250 C 64.903 25.892,64.750 26.885,64.661 27.458 C 64.331 29.587,64.163 30.694,64.013 31.708 C 63.929 32.281,63.773 33.313,63.667 34.000 C 63.560 34.688,63.404 35.719,63.320 36.292 C 63.236 36.865,63.094 37.802,63.005 38.375 C 62.740 40.085,62.509 41.603,62.347 42.708 C 62.194 43.745,61.939 45.418,61.667 47.167 C 61.588 47.671,61.371 49.133,61.184 50.417 C 60.996 51.700,60.244 56.725,59.512 61.583 C 58.779 66.442,58.061 71.279,57.916 72.333 C 57.188 77.606,57.161 76.666,57.165 46.632 C 57.169 21.102,57.145 18.527,56.904 18.435 C 56.346 18.221,43.050 18.322,42.877 18.542 C 42.787 18.656,42.099 22.613,41.349 27.333 C 40.599 32.054,39.762 37.304,39.490 39.000 C 39.218 40.696,38.918 42.571,38.824 43.167 C 38.731 43.762,38.582 44.681,38.494 45.208 C 38.405 45.735,38.258 46.617,38.167 47.167 C 37.661 50.203,37.458 50.811,37.266 49.876 C 37.182 49.470,36.804 47.084,36.308 43.833 C 36.217 43.237,36.079 42.337,36.000 41.833 C 35.921 41.329,35.771 40.354,35.667 39.667 C 35.562 38.979,35.409 38.004,35.327 37.500 C 35.246 36.996,35.096 36.058,34.994 35.417 C 34.893 34.775,34.737 33.800,34.647 33.250 C 34.480 32.216,34.296 31.036,34.012 29.167 C 33.922 28.571,33.766 27.596,33.667 27.000 C 33.488 25.933,33.337 24.968,33.013 22.833 C 32.730 20.974,32.499 19.606,32.365 19.000 L 32.236 18.417 25.231 18.373 C 21.378 18.349,18.175 18.381,18.113 18.443 M172.780 18.442 C 172.718 18.505,172.667 32.606,172.667 49.778 L 172.667 81.000 183.083 81.000 L 193.500 81.000 193.500 75.500 L 193.500 70.000 188.854 70.000 C 185.159 70.000,184.169 69.954,184.021 69.775 C 183.886 69.612,183.823 62.543,183.792 43.984 L 183.750 18.417 178.322 18.373 C 175.336 18.349,172.842 18.380,172.780 18.442 M103.091 29.756 C 110.249 31.742,110.668 45.834,103.667 49.118 C 102.266 49.775,101.226 49.922,100.998 49.495 C 100.762 49.056,100.776 30.086,101.012 29.645 C 101.205 29.283,101.426 29.295,103.091 29.756 M74.003 37.333 C 74.083 38.021,74.227 39.240,74.324 40.042 C 74.421 40.844,74.579 42.156,74.676 42.958 C 74.773 43.760,74.920 44.979,75.003 45.667 C 75.086 46.354,75.234 47.554,75.333 48.333 C 75.431 49.112,75.582 50.350,75.667 51.083 C 75.752 51.817,75.895 53.017,75.985 53.750 C 76.663 59.294,76.847 61.057,76.768 61.263 C 76.657 61.553,70.593 61.619,70.416 61.332 C 70.359 61.240,70.390 60.621,70.485 59.957 C 70.581 59.293,70.736 58.094,70.829 57.292 C 70.923 56.490,71.075 55.196,71.167 54.417 C 71.258 53.637,71.408 52.362,71.500 51.583 C 71.592 50.804,71.741 49.548,71.832 48.792 C 71.923 48.035,72.074 46.742,72.168 45.917 C 73.146 37.316,73.328 35.830,73.445 35.500 C 73.588 35.096,73.841 35.927,74.003 37.333 " stroke="none" fill="#fbf9f9" fill-rule="evenodd"></path><path id="path2" d="M17.875 18.277 C 17.576 18.398,17.568 80.835,17.867 81.133 C 18.153 81.420,29.014 81.420,29.300 81.133 C 29.452 80.981,29.504 77.671,29.517 67.342 C 29.527 59.312,29.593 53.989,29.678 54.333 C 29.810 54.866,30.280 57.480,30.675 59.875 C 30.762 60.402,30.914 61.302,31.013 61.875 C 31.112 62.448,31.258 63.292,31.338 63.750 C 31.417 64.208,31.565 65.033,31.666 65.583 C 31.767 66.133,31.917 66.996,32.000 67.500 C 32.083 68.004,32.233 68.867,32.333 69.417 C 32.434 69.967,32.588 70.848,32.675 71.375 C 32.762 71.902,32.905 72.765,32.992 73.292 C 33.079 73.819,33.233 74.700,33.333 75.250 C 33.434 75.800,33.583 76.662,33.664 77.167 C 33.976 79.107,34.347 81.054,34.432 81.191 C 34.580 81.430,40.430 81.368,40.631 81.125 C 40.772 80.954,41.391 77.615,42.191 72.708 C 42.269 72.227,42.398 71.440,42.476 70.958 C 43.647 63.777,45.050 55.534,45.235 54.750 C 45.447 53.858,45.474 55.215,45.486 67.278 C 45.494 74.718,45.546 80.925,45.601 81.070 C 45.737 81.424,67.509 81.478,67.794 81.125 C 67.886 81.010,68.165 79.417,68.414 77.583 C 68.663 75.750,68.955 73.688,69.063 73.000 L 69.260 71.750 73.456 71.705 C 78.251 71.655,77.883 71.531,78.057 73.250 C 78.112 73.800,78.235 74.775,78.330 75.417 C 78.653 77.611,78.851 79.083,78.946 80.000 C 78.998 80.504,79.116 81.010,79.207 81.125 C 79.494 81.484,100.930 81.423,101.068 81.063 C 101.125 80.915,101.168 76.364,101.164 70.952 C 101.160 65.348,101.221 61.046,101.306 60.961 C 101.388 60.878,101.926 60.797,102.502 60.781 L 103.548 60.750 103.847 61.917 C 104.124 63.001,104.271 63.558,105.167 66.917 C 105.350 67.604,105.650 68.729,105.833 69.417 C 106.660 72.516,107.309 74.977,108.163 78.250 C 108.450 79.350,108.761 80.494,108.855 80.792 L 109.026 81.333 114.680 81.333 L 120.333 81.333 120.333 80.944 C 120.333 80.730,120.182 80.074,119.998 79.486 C 119.813 78.898,119.579 78.117,119.478 77.750 C 119.377 77.383,119.233 76.896,119.158 76.667 C 119.036 76.297,117.628 71.519,117.192 70.000 C 117.031 69.438,116.519 67.692,114.362 60.343 L 113.361 56.935 114.889 55.323 C 117.560 52.506,120.000 47.464,120.000 44.762 C 120.000 44.526,120.075 44.333,120.167 44.333 C 120.258 44.333,120.333 44.484,120.333 44.668 C 120.333 44.852,120.675 47.046,121.092 49.543 C 121.509 52.040,121.917 54.496,121.999 55.000 C 122.082 55.504,122.307 56.817,122.500 57.917 C 122.693 59.017,122.922 60.348,123.009 60.875 C 123.096 61.402,123.239 62.265,123.327 62.792 C 123.416 63.319,123.562 64.200,123.652 64.750 C 123.743 65.300,123.899 66.200,124.000 66.750 C 124.101 67.300,124.255 68.181,124.342 68.708 C 124.429 69.235,124.578 70.135,124.673 70.708 C 124.769 71.281,124.908 72.125,124.983 72.583 C 125.882 78.070,126.408 80.953,126.543 81.125 C 126.790 81.439,139.715 81.426,139.976 81.112 C 140.077 80.990,140.236 80.372,140.329 79.737 C 140.422 79.103,140.642 77.683,140.819 76.583 C 140.995 75.483,141.335 73.346,141.574 71.833 C 142.041 68.883,142.320 67.124,142.845 63.833 C 143.027 62.688,143.252 61.262,143.345 60.667 C 143.437 60.071,143.584 59.171,143.670 58.667 C 143.835 57.708,143.943 57.027,144.927 50.750 C 145.257 48.642,145.672 46.017,145.848 44.917 C 146.390 41.540,146.509 40.787,146.667 39.750 C 146.750 39.200,146.897 38.281,146.993 37.708 C 147.088 37.135,147.245 36.198,147.341 35.625 C 147.436 35.052,147.583 34.133,147.667 33.583 C 147.750 33.033,147.900 32.096,148.000 31.500 C 148.100 30.904,148.251 29.967,148.336 29.417 C 148.421 28.867,148.560 28.154,148.645 27.833 C 148.741 27.468,148.806 37.274,148.816 54.028 C 148.826 68.756,148.879 80.925,148.934 81.070 C 149.068 81.416,170.288 81.479,170.633 81.133 C 170.920 80.847,170.920 70.153,170.633 69.867 C 170.487 69.720,169.107 69.667,165.465 69.667 L 160.496 69.667 160.540 62.708 L 160.583 55.750 165.548 55.667 C 169.717 55.597,170.538 55.543,170.670 55.333 C 170.866 55.024,170.884 44.338,170.690 44.032 C 170.581 43.861,169.542 43.817,165.800 43.828 C 163.187 43.836,160.925 43.794,160.774 43.736 C 160.526 43.641,160.500 42.990,160.500 36.816 L 160.500 30.000 165.405 30.000 C 169.641 30.000,170.345 29.964,170.571 29.738 C 170.914 29.396,170.972 18.705,170.633 18.367 C 170.343 18.077,138.657 18.077,138.367 18.367 C 138.257 18.477,138.167 18.802,138.167 19.089 C 138.167 19.376,138.097 20.017,138.011 20.514 C 137.926 21.010,137.776 22.017,137.678 22.750 C 137.581 23.483,137.355 25.133,137.176 26.417 C 136.998 27.700,136.695 29.912,136.503 31.333 C 136.311 32.754,135.970 35.267,135.746 36.917 C 135.521 38.567,135.258 40.517,135.161 41.250 C 135.064 41.983,134.916 43.033,134.833 43.583 C 134.750 44.133,134.600 45.221,134.498 46.000 C 134.276 47.710,134.040 49.402,133.837 50.750 C 133.754 51.300,133.593 52.444,133.477 53.293 C 133.222 55.178,133.105 55.093,132.846 52.833 C 132.735 51.871,132.503 50.071,132.330 48.833 C 132.158 47.596,131.858 45.421,131.665 44.000 C 131.324 41.485,130.848 38.031,130.494 35.500 C 130.398 34.813,130.242 33.688,130.148 33.000 C 129.983 31.791,129.886 31.088,129.494 28.250 C 129.393 27.517,129.244 26.429,129.163 25.833 C 129.081 25.238,128.941 24.225,128.850 23.583 C 128.760 22.942,128.601 21.779,128.498 21.000 C 128.395 20.221,128.259 19.283,128.196 18.917 L 128.082 18.250 122.183 18.206 L 116.285 18.162 116.393 19.290 C 116.453 19.909,116.569 20.942,116.651 21.583 C 117.490 28.143,117.512 27.754,116.404 26.126 C 114.555 23.409,111.315 20.742,108.439 19.569 C 105.283 18.282,105.110 18.263,96.917 18.256 L 89.583 18.250 89.480 22.083 C 89.423 24.192,89.361 36.042,89.342 48.417 C 89.323 60.792,89.278 70.842,89.244 70.750 C 89.209 70.658,89.058 69.758,88.910 68.750 C 88.649 66.985,88.571 66.473,88.177 63.917 C 88.078 63.275,87.923 62.225,87.833 61.583 C 87.743 60.942,87.600 59.967,87.515 59.417 C 87.430 58.867,87.170 57.142,86.936 55.583 C 86.703 54.025,86.358 51.737,86.171 50.500 C 85.983 49.262,85.750 47.725,85.653 47.083 C 85.556 46.442,85.412 45.504,85.333 45.000 C 85.255 44.496,85.105 43.521,85.000 42.833 C 84.895 42.146,84.745 41.171,84.667 40.667 C 84.401 38.962,84.141 37.255,83.987 36.208 C 83.902 35.635,83.758 34.679,83.667 34.083 C 83.575 33.487,83.425 32.512,83.333 31.917 C 83.242 31.321,83.094 30.365,83.005 29.792 C 82.677 27.677,82.507 26.555,82.340 25.417 C 82.247 24.775,82.100 23.800,82.015 23.250 C 81.929 22.700,81.732 21.387,81.575 20.333 C 81.419 19.279,81.207 18.362,81.104 18.294 C 80.752 18.064,66.060 18.142,65.876 18.375 C 65.785 18.490,65.628 19.146,65.527 19.833 C 65.427 20.521,65.190 22.096,65.002 23.333 C 64.814 24.571,64.587 26.108,64.498 26.750 C 64.409 27.392,64.266 28.367,64.180 28.917 C 64.094 29.467,63.938 30.479,63.833 31.167 C 63.729 31.854,63.579 32.829,63.502 33.333 C 63.424 33.837,63.242 35.075,63.096 36.083 C 62.950 37.092,62.758 38.367,62.668 38.917 C 62.578 39.467,62.315 41.229,62.083 42.833 C 61.852 44.438,61.588 46.219,61.498 46.792 C 61.340 47.789,61.219 48.589,60.833 51.167 C 60.499 53.404,60.332 54.508,60.167 55.583 C 60.075 56.179,59.925 57.154,59.833 57.750 C 59.742 58.346,59.594 59.302,59.506 59.875 C 59.417 60.448,59.263 61.479,59.162 62.167 C 59.062 62.854,58.912 63.829,58.830 64.333 C 58.685 65.220,58.507 66.363,58.175 68.542 C 58.087 69.115,57.929 70.221,57.823 71.000 C 57.716 71.779,57.582 72.529,57.523 72.667 C 57.465 72.804,57.379 60.617,57.333 45.583 L 57.250 18.250 49.966 18.207 L 42.681 18.163 42.518 18.790 C 42.429 19.135,42.271 19.979,42.167 20.667 C 41.936 22.205,41.801 23.037,41.173 26.792 C 41.085 27.319,40.932 28.275,40.833 28.917 C 40.652 30.095,40.470 31.204,40.169 32.958 C 40.079 33.485,39.782 35.304,39.509 37.000 C 39.236 38.696,38.750 41.696,38.429 43.667 C 38.108 45.638,37.795 47.682,37.733 48.209 C 37.579 49.523,37.430 49.411,37.185 47.792 C 37.070 47.035,36.911 46.042,36.832 45.583 C 36.753 45.125,36.612 44.262,36.519 43.667 C 36.196 41.593,35.999 40.326,35.827 39.208 C 35.732 38.590,35.583 37.671,35.496 37.167 C 35.410 36.662,35.149 34.975,34.917 33.417 C 34.684 31.858,34.420 30.115,34.330 29.542 C 34.240 28.969,34.089 27.994,33.994 27.375 C 33.898 26.756,33.751 25.837,33.667 25.333 C 33.582 24.829,33.435 23.910,33.340 23.292 C 33.245 22.673,33.094 21.698,33.005 21.125 C 32.917 20.552,32.796 19.746,32.737 19.333 C 32.677 18.921,32.553 18.490,32.461 18.375 C 32.293 18.167,18.380 18.073,17.875 18.277 M172.444 18.278 C 172.227 18.496,172.315 80.915,172.533 81.133 C 172.785 81.385,193.423 81.426,193.578 81.175 C 193.651 81.057,193.706 74.311,193.669 69.958 C 193.667 69.687,193.324 69.667,188.833 69.667 L 184.000 69.667 184.000 43.917 L 184.000 18.167 178.278 18.167 C 175.131 18.167,172.506 18.217,172.444 18.278 M32.365 19.000 C 32.499 19.606,32.730 20.974,33.013 22.833 C 33.337 24.968,33.488 25.933,33.667 27.000 C 33.766 27.596,33.922 28.571,34.012 29.167 C 34.296 31.036,34.480 32.216,34.647 33.250 C 34.737 33.800,34.893 34.775,34.994 35.417 C 35.096 36.058,35.246 36.996,35.327 37.500 C 35.409 38.004,35.562 38.979,35.667 39.667 C 35.771 40.354,35.921 41.329,36.000 41.833 C 36.079 42.337,36.217 43.237,36.308 43.833 C 36.804 47.084,37.182 49.470,37.266 49.876 C 37.458 50.811,37.661 50.203,38.167 47.167 C 38.258 46.617,38.405 45.735,38.494 45.208 C 38.582 44.681,38.731 43.762,38.824 43.167 C 38.918 42.571,39.218 40.696,39.490 39.000 C 39.762 37.304,40.599 32.054,41.349 27.333 C 42.099 22.613,42.787 18.656,42.877 18.542 C 43.050 18.322,56.346 18.221,56.904 18.435 C 57.145 18.527,57.169 21.102,57.165 46.632 C 57.161 76.666,57.188 77.606,57.916 72.333 C 58.061 71.279,58.779 66.442,59.512 61.583 C 60.244 56.725,60.996 51.700,61.184 50.417 C 61.371 49.133,61.588 47.671,61.667 47.167 C 61.939 45.418,62.194 43.745,62.347 42.708 C 62.509 41.603,62.740 40.085,63.005 38.375 C 63.094 37.802,63.236 36.865,63.320 36.292 C 63.404 35.719,63.560 34.688,63.667 34.000 C 63.773 33.313,63.929 32.281,64.013 31.708 C 64.163 30.694,64.331 29.587,64.661 27.458 C 64.750 26.885,64.903 25.892,65.000 25.250 C 65.097 24.608,65.247 23.633,65.333 23.083 C 65.419 22.533,65.570 21.521,65.667 20.833 C 65.765 20.146,65.902 19.321,65.971 19.000 L 66.097 18.417 73.458 18.373 C 81.940 18.323,81.057 18.118,81.336 20.204 C 81.425 20.871,81.568 21.867,81.653 22.417 C 81.739 22.967,81.891 23.968,81.990 24.642 C 82.510 28.171,85.690 49.399,85.833 50.292 C 86.077 51.816,86.298 53.252,86.504 54.667 C 86.605 55.354,86.753 56.329,86.833 56.833 C 86.913 57.337,87.064 58.313,87.167 59.000 C 87.270 59.688,87.420 60.663,87.500 61.167 C 87.580 61.671,87.730 62.646,87.833 63.333 C 87.936 64.021,88.086 64.996,88.167 65.500 C 88.247 66.004,88.392 66.960,88.490 67.625 C 88.936 70.670,89.029 71.277,89.107 71.667 C 89.153 71.896,89.231 72.327,89.280 72.625 C 89.606 74.593,89.670 70.593,89.708 45.792 L 89.750 18.417 95.750 18.362 C 102.871 18.297,104.562 18.450,107.417 19.416 C 110.777 20.554,114.471 23.521,116.500 26.713 C 117.816 28.783,117.801 28.811,117.336 25.083 C 117.256 24.442,117.108 23.279,117.007 22.500 C 116.630 19.592,116.530 18.586,116.607 18.461 C 116.651 18.391,119.193 18.333,122.257 18.333 L 127.827 18.333 127.906 18.708 C 128.050 19.392,128.318 21.326,129.665 31.417 C 130.400 36.917,131.071 41.904,131.158 42.500 C 131.244 43.096,131.397 44.221,131.499 45.000 C 131.600 45.779,131.750 46.867,131.833 47.417 C 131.916 47.967,132.067 49.054,132.168 49.833 C 133.171 57.539,133.175 57.544,133.921 51.917 C 134.152 50.175,134.490 47.700,134.671 46.417 C 134.852 45.133,135.079 43.483,135.175 42.750 C 135.271 42.017,135.416 40.967,135.498 40.417 C 135.580 39.867,135.729 38.817,135.829 38.083 C 136.247 35.031,136.655 32.081,136.833 30.833 C 136.918 30.238,137.068 29.150,137.167 28.417 C 137.265 27.683,137.414 26.596,137.498 26.000 C 137.659 24.859,137.862 23.410,138.151 21.333 C 138.246 20.646,138.369 19.727,138.422 19.292 C 138.553 18.239,137.122 18.319,154.833 18.371 L 170.417 18.417 170.417 24.000 L 170.417 29.583 165.375 29.627 L 160.333 29.672 160.333 36.833 L 160.333 43.995 165.375 44.039 L 170.417 44.083 170.417 49.667 L 170.417 55.250 165.373 55.294 L 160.330 55.338 160.373 62.627 L 160.417 69.917 165.461 69.961 L 170.505 70.005 170.461 75.461 L 170.417 80.917 159.790 80.917 L 149.163 80.917 149.154 53.417 C 149.148 38.292,149.087 25.772,149.018 25.594 C 148.788 25.011,148.680 25.543,147.502 33.027 C 146.862 37.091,146.265 40.867,146.174 41.417 C 146.084 41.967,145.855 43.392,145.666 44.583 C 145.183 47.628,144.795 50.045,144.510 51.792 C 144.425 52.319,144.268 53.313,144.163 54.000 C 144.058 54.688,143.909 55.587,143.833 56.000 C 143.757 56.413,143.609 57.313,143.504 58.000 C 143.399 58.688,143.242 59.681,143.156 60.208 C 142.956 61.436,142.740 62.780,142.506 64.250 C 142.404 64.892,142.252 65.829,142.167 66.333 C 142.082 66.837,141.932 67.775,141.833 68.417 C 141.735 69.058,141.585 69.996,141.500 70.500 C 141.415 71.004,141.265 71.942,141.167 72.583 C 141.068 73.225,140.916 74.162,140.829 74.667 C 140.742 75.171,140.519 76.558,140.335 77.750 C 140.151 78.942,139.959 80.160,139.909 80.458 L 139.818 81.000 133.261 81.000 L 126.703 81.000 126.585 80.542 C 126.521 80.290,126.400 79.652,126.317 79.125 C 126.016 77.205,125.814 75.995,123.321 61.167 C 120.437 44.007,120.549 44.682,120.399 43.620 C 120.262 42.657,120.044 42.458,119.942 43.204 C 119.145 49.029,117.590 52.417,114.199 55.710 L 113.040 56.836 113.451 58.210 C 113.678 58.965,113.927 59.808,114.006 60.083 C 114.280 61.047,114.501 61.838,114.647 62.375 C 114.728 62.673,114.904 63.254,115.040 63.667 C 115.175 64.079,115.382 64.754,115.500 65.167 C 115.618 65.579,115.825 66.254,115.960 66.667 C 116.096 67.079,116.277 67.679,116.363 68.000 C 116.590 68.849,116.745 69.381,117.333 71.333 C 117.623 72.296,117.923 73.308,117.998 73.583 C 118.150 74.137,119.942 80.221,120.094 80.701 C 120.186 80.991,119.943 81.003,114.644 80.961 L 109.097 80.917 108.981 80.417 C 108.877 79.972,108.637 79.055,107.781 75.833 C 107.647 75.329,106.736 71.842,105.757 68.083 C 103.457 59.256,103.897 60.140,101.990 60.502 C 100.761 60.735,100.839 60.029,100.836 71.042 L 100.833 81.000 90.106 81.000 L 79.379 81.000 79.192 79.792 C 79.089 79.127,78.812 77.121,78.577 75.333 C 78.342 73.546,78.079 71.913,77.994 71.706 L 77.838 71.328 73.462 71.372 L 69.087 71.417 68.893 72.417 C 68.786 72.967,68.612 74.054,68.506 74.833 C 68.201 77.088,68.026 78.324,67.816 79.708 L 67.620 81.000 56.726 81.000 L 45.833 81.000 45.817 66.875 C 45.798 50.792,45.745 49.998,45.003 54.583 C 44.810 55.775,44.587 57.087,44.507 57.500 C 44.427 57.913,44.274 58.813,44.167 59.500 C 44.059 60.188,43.909 61.087,43.832 61.500 C 43.679 62.320,43.426 63.775,43.167 65.333 C 43.075 65.883,42.925 66.783,42.833 67.333 C 42.414 69.849,42.308 70.471,42.167 71.250 C 42.083 71.708,41.937 72.552,41.841 73.125 C 41.745 73.698,41.588 74.635,41.492 75.208 C 41.396 75.781,41.249 76.625,41.164 77.083 C 41.079 77.542,40.926 78.442,40.823 79.083 C 40.719 79.725,40.603 80.419,40.564 80.625 C 40.494 80.997,40.469 81.000,37.590 81.000 C 34.358 81.000,34.535 81.070,34.331 79.702 C 34.252 79.179,33.917 77.175,33.585 75.250 C 33.254 73.325,32.393 68.300,31.673 64.083 C 30.284 55.954,29.848 53.423,29.684 52.534 C 29.323 50.570,29.248 52.766,29.207 66.458 L 29.165 81.000 23.582 81.000 L 18.000 81.000 18.000 49.778 C 18.000 32.606,18.051 18.505,18.113 18.443 C 18.175 18.381,21.378 18.349,25.231 18.373 L 32.236 18.417 32.365 19.000 M183.792 43.984 C 183.823 62.543,183.886 69.612,184.021 69.775 C 184.169 69.954,185.159 70.000,188.854 70.000 L 193.500 70.000 193.500 75.500 L 193.500 81.000 183.083 81.000 L 172.667 81.000 172.667 49.778 C 172.667 32.606,172.718 18.505,172.780 18.442 C 172.842 18.380,175.336 18.349,178.322 18.373 L 183.750 18.417 183.792 43.984 M101.012 29.645 C 100.776 30.086,100.762 49.056,100.998 49.495 C 101.408 50.262,104.175 49.188,105.675 47.680 C 109.290 44.047,109.748 36.361,106.598 32.179 C 105.263 30.406,101.514 28.706,101.012 29.645 M102.858 29.905 C 106.445 30.994,108.152 33.800,108.297 38.846 C 108.465 44.696,105.967 48.816,101.875 49.435 L 101.167 49.543 101.167 39.605 L 101.167 29.667 101.625 29.668 C 101.877 29.669,102.432 29.776,102.858 29.905 M73.445 35.500 C 73.328 35.830,73.146 37.316,72.168 45.917 C 72.074 46.742,71.923 48.035,71.832 48.792 C 71.741 49.548,71.592 50.804,71.500 51.583 C 71.408 52.362,71.258 53.637,71.167 54.417 C 71.075 55.196,70.923 56.490,70.829 57.292 C 70.736 58.094,70.581 59.293,70.485 59.957 C 70.390 60.621,70.359 61.240,70.416 61.332 C 70.593 61.619,76.657 61.553,76.768 61.263 C 76.847 61.057,76.663 59.294,75.985 53.750 C 75.895 53.017,75.752 51.817,75.667 51.083 C 75.582 50.350,75.431 49.112,75.333 48.333 C 75.234 47.554,75.086 46.354,75.003 45.667 C 74.920 44.979,74.773 43.760,74.676 42.958 C 74.579 42.156,74.421 40.844,74.324 40.042 C 74.227 39.240,74.083 38.021,74.003 37.333 C 73.841 35.927,73.588 35.096,73.445 35.500 M74.001 39.583 C 74.105 40.500,74.259 41.813,74.344 42.500 C 74.428 43.188,74.762 45.962,75.085 48.667 C 75.696 53.770,76.270 58.537,76.431 59.833 C 76.482 60.246,76.564 60.752,76.613 60.958 L 76.703 61.333 73.666 61.333 L 70.628 61.333 70.729 60.458 C 70.784 59.977,71.093 57.258,71.416 54.417 C 72.167 47.809,72.315 46.528,72.501 45.000 C 72.585 44.313,72.735 43.000,72.834 42.083 C 72.933 41.167,73.086 39.958,73.174 39.397 C 73.262 38.837,73.333 38.112,73.333 37.786 C 73.333 35.745,73.668 36.645,74.001 39.583 " stroke="none" fill="#ee7c74" fill-rule="evenodd"></path><path id="path3" d="M199.833 49.833 C 199.833 78.389,199.889 92.833,200.000 92.833 C 200.111 92.833,200.167 78.389,200.167 49.833 C 200.167 21.278,200.111 6.833,200.000 6.833 C 199.889 6.833,199.833 21.278,199.833 49.833 M210.167 9.500 L 210.167 12.167 301.500 12.167 L 392.833 12.167 392.833 9.500 L 392.833 6.833 301.500 6.833 L 210.167 6.833 210.167 9.500 M217.500 16.667 C 217.500 16.759,217.056 16.833,216.500 16.833 C 215.944 16.833,215.500 16.907,215.500 17.000 C 215.500 17.092,215.275 17.167,215.000 17.167 C 214.725 17.167,214.500 17.242,214.500 17.333 C 214.500 17.425,214.367 17.500,214.203 17.500 C 214.040 17.500,213.799 17.650,213.667 17.833 C 213.535 18.017,213.328 18.167,213.209 18.167 C 212.905 18.167,211.500 19.602,211.500 19.912 C 211.500 20.052,211.425 20.167,211.333 20.167 C 211.242 20.167,211.167 20.317,211.167 20.500 C 211.167 20.683,211.092 20.833,211.000 20.833 C 210.908 20.833,210.833 21.058,210.833 21.333 C 210.833 21.608,210.758 21.833,210.667 21.833 C 210.574 21.833,210.500 22.278,210.500 22.833 C 210.500 23.389,210.426 23.833,210.333 23.833 C 210.223 23.833,210.167 32.778,210.167 50.333 C 210.167 67.889,210.223 76.833,210.333 76.833 C 210.425 76.833,210.500 77.208,210.500 77.667 C 210.500 78.125,210.575 78.500,210.667 78.500 C 210.758 78.500,210.833 78.725,210.833 79.000 C 210.833 79.275,210.908 79.500,211.000 79.500 C 211.092 79.500,211.167 79.633,211.167 79.797 C 211.167 79.960,211.317 80.201,211.500 80.333 C 211.683 80.465,211.833 80.673,211.833 80.794 C 211.833 81.081,212.586 81.833,212.872 81.833 C 212.994 81.833,213.201 81.983,213.333 82.167 C 213.465 82.350,213.707 82.500,213.870 82.500 C 214.033 82.500,214.167 82.575,214.167 82.667 C 214.167 82.758,214.392 82.833,214.667 82.833 C 214.942 82.833,215.167 82.908,215.167 83.000 C 215.167 83.093,215.611 83.167,216.167 83.167 C 216.722 83.167,217.167 83.241,217.167 83.333 C 217.167 83.442,219.722 83.500,224.500 83.500 C 229.278 83.500,231.833 83.442,231.833 83.333 C 231.833 83.242,232.208 83.167,232.667 83.167 C 233.125 83.167,233.500 83.092,233.500 83.000 C 233.500 82.908,233.725 82.833,234.000 82.833 C 234.275 82.833,234.500 82.758,234.500 82.667 C 234.500 82.575,234.650 82.500,234.833 82.500 C 235.017 82.500,235.167 82.425,235.167 82.333 C 235.167 82.242,235.281 82.167,235.420 82.167 C 235.750 82.167,237.500 80.417,237.500 80.087 C 237.500 79.947,237.575 79.833,237.667 79.833 C 237.758 79.833,237.833 79.608,237.833 79.333 C 237.833 79.058,237.908 78.833,238.000 78.833 C 238.092 78.833,238.167 78.533,238.167 78.167 C 238.167 77.800,238.242 77.500,238.333 77.500 C 238.434 77.500,238.500 76.778,238.500 75.667 C 238.500 74.556,238.566 73.833,238.667 73.833 C 238.775 73.833,238.833 71.167,238.833 66.167 C 238.833 58.611,238.829 58.500,238.500 58.500 C 238.317 58.500,238.167 58.425,238.167 58.333 C 238.167 58.042,226.364 58.112,226.071 58.405 C 225.873 58.603,225.833 59.744,225.833 65.238 C 225.833 69.524,225.775 71.833,225.667 71.833 C 225.575 71.833,225.500 72.026,225.500 72.262 C 225.500 73.202,224.323 73.505,223.576 72.758 L 223.167 72.348 223.167 50.091 C 223.167 35.364,223.223 27.833,223.333 27.833 C 223.425 27.833,223.500 27.715,223.500 27.571 C 223.500 27.201,223.913 26.833,224.329 26.833 C 224.814 26.833,225.500 27.561,225.500 28.076 C 225.500 28.309,225.575 28.500,225.667 28.500 C 225.775 28.500,225.833 30.833,225.833 35.167 L 225.833 41.833 232.333 41.833 L 238.833 41.833 238.833 33.000 C 238.833 27.222,238.776 24.167,238.667 24.167 C 238.574 24.167,238.500 23.722,238.500 23.167 C 238.500 22.611,238.426 22.167,238.333 22.167 C 238.242 22.167,238.167 21.942,238.167 21.667 C 238.167 21.392,238.092 21.167,238.000 21.167 C 237.908 21.167,237.833 20.958,237.833 20.703 C 237.833 20.431,237.696 20.141,237.500 20.000 C 237.317 19.868,237.167 19.661,237.167 19.541 C 237.167 19.257,236.077 18.167,235.792 18.167 C 235.672 18.167,235.465 18.017,235.333 17.833 C 235.201 17.650,234.960 17.500,234.797 17.500 C 234.633 17.500,234.500 17.425,234.500 17.333 C 234.500 17.242,234.200 17.167,233.833 17.167 C 233.467 17.167,233.167 17.092,233.167 17.000 C 233.167 16.901,232.556 16.833,231.667 16.833 C 230.778 16.833,230.167 16.765,230.167 16.667 C 230.167 16.558,227.944 16.500,223.833 16.500 C 219.722 16.500,217.500 16.558,217.500 16.667 M339.500 16.667 C 339.500 16.759,339.056 16.833,338.500 16.833 C 337.944 16.833,337.500 16.907,337.500 17.000 C 337.500 17.092,337.275 17.167,337.000 17.167 C 336.725 17.167,336.500 17.242,336.500 17.333 C 336.500 17.425,336.367 17.500,336.203 17.500 C 336.040 17.500,335.799 17.650,335.667 17.833 C 335.535 18.017,335.328 18.167,335.209 18.167 C 334.905 18.167,333.500 19.602,333.500 19.912 C 333.500 20.052,333.425 20.167,333.333 20.167 C 333.242 20.167,333.167 20.317,333.167 20.500 C 333.167 20.683,333.092 20.833,333.000 20.833 C 332.908 20.833,332.833 21.058,332.833 21.333 C 332.833 21.608,332.758 21.833,332.667 21.833 C 332.574 21.833,332.500 22.278,332.500 22.833 C 332.500 23.389,332.426 23.833,332.333 23.833 C 332.223 23.833,332.167 32.778,332.167 50.333 C 332.167 67.889,332.223 76.833,332.333 76.833 C 332.425 76.833,332.500 77.208,332.500 77.667 C 332.500 78.125,332.575 78.500,332.667 78.500 C 332.758 78.500,332.833 78.725,332.833 79.000 C 332.833 79.275,332.908 79.500,333.000 79.500 C 333.092 79.500,333.167 79.633,333.167 79.797 C 333.167 79.960,333.317 80.201,333.500 80.333 C 333.683 80.465,333.833 80.672,333.833 80.792 C 333.833 81.096,334.933 82.167,335.244 82.167 C 335.385 82.167,335.500 82.242,335.500 82.333 C 335.500 82.425,335.650 82.500,335.833 82.500 C 336.017 82.500,336.167 82.575,336.167 82.667 C 336.167 82.758,336.392 82.833,336.667 82.833 C 336.942 82.833,337.167 82.908,337.167 83.000 C 337.167 83.093,337.611 83.167,338.167 83.167 C 338.722 83.167,339.167 83.241,339.167 83.333 C 339.167 83.442,341.722 83.500,346.500 83.500 C 351.278 83.500,353.833 83.442,353.833 83.333 C 353.833 83.242,354.208 83.167,354.667 83.167 C 355.125 83.167,355.500 83.092,355.500 83.000 C 355.500 82.908,355.725 82.833,356.000 82.833 C 356.275 82.833,356.500 82.758,356.500 82.667 C 356.500 82.575,356.650 82.500,356.833 82.500 C 357.017 82.500,357.167 82.425,357.167 82.333 C 357.167 82.242,357.281 82.167,357.420 82.167 C 357.750 82.167,359.500 80.417,359.500 80.087 C 359.500 79.947,359.575 79.833,359.667 79.833 C 359.758 79.833,359.833 79.608,359.833 79.333 C 359.833 79.058,359.908 78.833,360.000 78.833 C 360.092 78.833,360.167 78.533,360.167 78.167 C 360.167 77.800,360.242 77.500,360.333 77.500 C 360.434 77.500,360.500 76.778,360.500 75.667 C 360.500 74.556,360.566 73.833,360.667 73.833 C 360.775 73.833,360.833 71.111,360.833 66.000 L 360.833 58.167 357.000 58.167 C 354.556 58.167,353.167 58.227,353.167 58.333 C 353.167 58.425,353.017 58.500,352.833 58.500 C 352.650 58.500,352.500 58.425,352.500 58.333 C 352.500 58.051,348.358 58.118,348.071 58.405 C 347.873 58.603,347.833 59.744,347.833 65.238 C 347.833 69.524,347.775 71.833,347.667 71.833 C 347.575 71.833,347.500 72.026,347.500 72.262 C 347.500 73.202,346.323 73.505,345.576 72.758 L 345.167 72.348 345.167 50.091 C 345.167 35.364,345.223 27.833,345.333 27.833 C 345.425 27.833,345.500 27.683,345.500 27.500 C 345.500 27.278,345.611 27.167,345.833 27.167 C 346.017 27.167,346.167 27.092,346.167 27.000 C 346.167 26.694,346.677 26.828,347.091 27.242 C 347.316 27.467,347.500 27.842,347.500 28.076 C 347.500 28.309,347.575 28.500,347.667 28.500 C 347.775 28.500,347.833 30.833,347.833 35.167 L 347.833 41.833 354.333 41.833 L 360.833 41.833 360.833 33.167 C 360.833 27.500,360.776 24.500,360.667 24.500 C 360.571 24.500,360.500 24.000,360.500 23.333 C 360.500 22.667,360.429 22.167,360.333 22.167 C 360.242 22.167,360.167 21.942,360.167 21.667 C 360.167 21.392,360.092 21.167,360.000 21.167 C 359.908 21.167,359.833 20.958,359.833 20.703 C 359.833 20.431,359.696 20.141,359.500 20.000 C 359.317 19.868,359.167 19.662,359.167 19.542 C 359.167 19.239,357.731 17.833,357.421 17.833 C 357.281 17.833,357.167 17.758,357.167 17.667 C 357.167 17.575,357.017 17.500,356.833 17.500 C 356.650 17.500,356.500 17.425,356.500 17.333 C 356.500 17.242,356.200 17.167,355.833 17.167 C 355.467 17.167,355.167 17.092,355.167 17.000 C 355.167 16.901,354.556 16.833,353.667 16.833 C 352.778 16.833,352.167 16.765,352.167 16.667 C 352.167 16.558,349.944 16.500,345.833 16.500 C 341.722 16.500,339.500 16.558,339.500 16.667 M372.833 16.667 C 372.833 16.764,372.278 16.833,371.500 16.833 C 370.722 16.833,370.167 16.903,370.167 17.000 C 370.167 17.092,369.867 17.167,369.500 17.167 C 369.133 17.167,368.833 17.242,368.833 17.333 C 368.833 17.425,368.608 17.500,368.333 17.500 C 368.058 17.500,367.833 17.575,367.833 17.667 C 367.833 17.758,367.700 17.833,367.537 17.833 C 367.374 17.833,367.132 17.983,367.000 18.167 C 366.868 18.350,366.658 18.500,366.535 18.500 C 366.245 18.500,365.833 18.911,365.833 19.201 C 365.833 19.325,365.683 19.535,365.500 19.667 C 365.317 19.799,365.167 20.040,365.167 20.203 C 365.167 20.367,365.092 20.500,365.000 20.500 C 364.908 20.500,364.833 20.725,364.833 21.000 C 364.833 21.275,364.758 21.500,364.667 21.500 C 364.575 21.500,364.500 21.800,364.500 22.167 C 364.500 22.533,364.425 22.833,364.333 22.833 C 364.224 22.833,364.167 26.000,364.167 32.000 C 364.167 38.000,364.224 41.167,364.333 41.167 C 364.425 41.167,364.500 41.542,364.500 42.000 C 364.500 42.458,364.575 42.833,364.667 42.833 C 364.758 42.833,364.833 43.133,364.833 43.500 C 364.833 43.867,364.908 44.167,365.000 44.167 C 365.092 44.167,365.167 44.392,365.167 44.667 C 365.167 44.942,365.242 45.167,365.333 45.167 C 365.425 45.167,365.500 45.317,365.500 45.500 C 365.500 45.683,365.575 45.833,365.667 45.833 C 365.758 45.833,365.833 45.983,365.833 46.167 C 365.833 46.350,365.908 46.500,366.000 46.500 C 366.092 46.500,366.167 46.650,366.167 46.833 C 366.167 47.017,366.242 47.167,366.333 47.167 C 366.425 47.167,366.500 47.287,366.500 47.433 C 366.500 47.580,366.725 47.910,367.000 48.167 C 367.275 48.424,367.500 48.720,367.500 48.824 C 367.500 49.072,368.261 49.833,368.509 49.833 C 368.614 49.833,368.910 50.058,369.167 50.333 C 369.424 50.608,369.754 50.833,369.900 50.833 C 370.047 50.833,370.167 50.908,370.167 51.000 C 370.167 51.092,370.300 51.167,370.463 51.167 C 370.626 51.167,370.868 51.317,371.000 51.500 C 371.132 51.683,371.374 51.833,371.537 51.833 C 371.700 51.833,371.833 51.908,371.833 52.000 C 371.833 52.092,371.983 52.167,372.167 52.167 C 372.350 52.167,372.500 52.242,372.500 52.333 C 372.500 52.425,372.650 52.500,372.833 52.500 C 373.017 52.500,373.167 52.575,373.167 52.667 C 373.167 52.758,373.317 52.833,373.500 52.833 C 373.683 52.833,373.833 52.908,373.833 53.000 C 373.833 53.092,373.967 53.167,374.130 53.167 C 374.293 53.167,374.535 53.317,374.667 53.500 C 374.799 53.683,375.040 53.833,375.203 53.833 C 375.367 53.833,375.500 53.908,375.500 54.000 C 375.500 54.092,375.650 54.167,375.833 54.167 C 376.017 54.167,376.167 54.242,376.167 54.333 C 376.167 54.425,376.300 54.500,376.463 54.500 C 376.626 54.500,376.868 54.650,377.000 54.833 C 377.132 55.017,377.374 55.167,377.537 55.167 C 377.710 55.167,377.833 55.290,377.833 55.463 C 377.833 55.626,377.983 55.868,378.167 56.000 C 378.350 56.132,378.500 56.374,378.500 56.537 C 378.500 56.700,378.575 56.833,378.667 56.833 C 378.758 56.833,378.833 57.058,378.833 57.333 C 378.833 57.608,378.908 57.833,379.000 57.833 C 379.092 57.833,379.167 58.133,379.167 58.500 C 379.167 58.867,379.242 59.167,379.333 59.167 C 379.432 59.167,379.500 59.778,379.500 60.667 C 379.500 61.556,379.568 62.167,379.667 62.167 C 379.774 62.167,379.833 63.833,379.833 66.833 C 379.833 69.833,379.774 71.500,379.667 71.500 C 379.575 71.500,379.500 71.725,379.500 72.000 C 379.500 72.275,379.425 72.500,379.333 72.500 C 379.242 72.500,379.167 72.650,379.167 72.833 C 379.167 73.344,378.112 73.294,377.576 72.758 C 377.193 72.375,377.167 72.235,377.167 70.591 C 377.167 69.530,377.101 68.833,377.000 68.833 C 376.905 68.833,376.833 68.333,376.833 67.667 C 376.833 67.000,376.905 66.500,377.000 66.500 C 377.288 66.500,377.220 58.696,376.929 58.405 C 376.575 58.051,364.759 58.051,364.405 58.405 C 364.111 58.699,364.041 77.167,364.333 77.167 C 364.425 77.167,364.500 77.467,364.500 77.833 C 364.500 78.200,364.575 78.500,364.667 78.500 C 364.758 78.500,364.833 78.725,364.833 79.000 C 364.833 79.275,364.908 79.500,365.000 79.500 C 365.092 79.500,365.167 79.614,365.167 79.753 C 365.167 80.082,367.585 82.500,367.914 82.500 C 368.053 82.500,368.167 82.575,368.167 82.667 C 368.167 82.758,368.392 82.833,368.667 82.833 C 368.942 82.833,369.167 82.908,369.167 83.000 C 369.167 83.092,369.467 83.167,369.833 83.167 C 370.200 83.167,370.500 83.242,370.500 83.333 C 370.500 83.442,373.167 83.500,378.167 83.500 C 383.167 83.500,385.833 83.442,385.833 83.333 C 385.833 83.242,386.208 83.167,386.667 83.167 C 387.125 83.167,387.500 83.092,387.500 83.000 C 387.500 82.908,387.725 82.833,388.000 82.833 C 388.275 82.833,388.500 82.758,388.500 82.667 C 388.500 82.575,388.650 82.500,388.833 82.500 C 389.017 82.500,389.167 82.425,389.167 82.333 C 389.167 82.242,389.281 82.167,389.420 82.167 C 389.750 82.167,391.500 80.417,391.500 80.087 C 391.500 79.947,391.575 79.833,391.667 79.833 C 391.758 79.833,391.833 79.608,391.833 79.333 C 391.833 79.058,391.908 78.833,392.000 78.833 C 392.092 78.833,392.167 78.533,392.167 78.167 C 392.167 77.800,392.242 77.500,392.333 77.500 C 392.432 77.500,392.500 76.889,392.500 76.000 C 392.500 75.111,392.568 74.500,392.667 74.500 C 392.776 74.500,392.833 71.556,392.833 66.000 C 392.833 60.444,392.776 57.500,392.667 57.500 C 392.566 57.500,392.500 56.778,392.500 55.667 C 392.500 54.556,392.434 53.833,392.333 53.833 C 392.242 53.833,392.167 53.458,392.167 53.000 C 392.167 52.542,392.092 52.167,392.000 52.167 C 391.908 52.167,391.833 51.867,391.833 51.500 C 391.833 51.133,391.758 50.833,391.667 50.833 C 391.575 50.833,391.500 50.608,391.500 50.333 C 391.500 50.058,391.425 49.833,391.333 49.833 C 391.242 49.833,391.167 49.608,391.167 49.333 C 391.167 49.058,391.092 48.833,391.000 48.833 C 390.908 48.833,390.833 48.683,390.833 48.500 C 390.833 48.317,390.758 48.167,390.667 48.167 C 390.575 48.167,390.500 48.017,390.500 47.833 C 390.500 47.650,390.425 47.500,390.333 47.500 C 390.242 47.500,390.167 47.367,390.167 47.203 C 390.167 47.040,390.017 46.799,389.833 46.667 C 389.650 46.535,389.500 46.329,389.500 46.211 C 389.500 45.930,386.737 43.167,386.456 43.167 C 386.337 43.167,386.132 43.017,386.000 42.833 C 385.868 42.650,385.626 42.500,385.463 42.500 C 385.300 42.500,385.167 42.425,385.167 42.333 C 385.167 42.242,385.017 42.167,384.833 42.167 C 384.650 42.167,384.500 42.092,384.500 42.000 C 384.500 41.908,384.367 41.833,384.203 41.833 C 384.040 41.833,383.799 41.683,383.667 41.500 C 383.535 41.317,383.293 41.167,383.130 41.167 C 382.967 41.167,382.833 41.092,382.833 41.000 C 382.833 40.908,382.683 40.833,382.500 40.833 C 382.317 40.833,382.167 40.758,382.167 40.667 C 382.167 40.575,382.033 40.500,381.870 40.500 C 381.707 40.500,381.465 40.350,381.333 40.167 C 381.201 39.983,380.960 39.833,380.797 39.833 C 380.633 39.833,380.500 39.758,380.500 39.667 C 380.500 39.575,380.350 39.500,380.167 39.500 C 379.983 39.500,379.833 39.425,379.833 39.333 C 379.833 39.242,379.719 39.167,379.579 39.167 C 379.248 39.167,377.833 37.752,377.833 37.421 C 377.833 37.281,377.758 37.167,377.667 37.167 C 377.575 37.167,377.500 36.942,377.500 36.667 C 377.500 36.392,377.425 36.167,377.333 36.167 C 377.227 36.167,377.167 34.667,377.167 32.000 C 377.167 29.333,377.227 27.833,377.333 27.833 C 377.425 27.833,377.500 27.683,377.500 27.500 C 377.500 27.278,377.611 27.167,377.833 27.167 C 378.017 27.167,378.167 27.092,378.167 27.000 C 378.167 26.752,378.655 26.798,378.929 27.071 C 379.060 27.202,379.167 27.427,379.167 27.571 C 379.167 27.715,379.242 27.833,379.333 27.833 C 379.425 27.833,379.500 28.133,379.500 28.500 C 379.500 28.867,379.575 29.167,379.667 29.167 C 379.773 29.167,379.833 30.667,379.833 33.333 L 379.833 37.500 386.333 37.500 L 392.833 37.500 392.833 31.667 C 392.833 27.889,392.775 25.833,392.667 25.833 C 392.568 25.833,392.500 25.222,392.500 24.333 C 392.500 23.444,392.432 22.833,392.333 22.833 C 392.242 22.833,392.167 22.533,392.167 22.167 C 392.167 21.800,392.092 21.500,392.000 21.500 C 391.908 21.500,391.833 21.275,391.833 21.000 C 391.833 20.725,391.758 20.500,391.667 20.500 C 391.575 20.500,391.500 20.350,391.500 20.167 C 391.500 19.983,391.425 19.833,391.333 19.833 C 391.242 19.833,391.167 19.718,391.167 19.578 C 391.167 19.246,390.087 18.167,389.756 18.167 C 389.615 18.167,389.500 18.092,389.500 18.000 C 389.500 17.908,389.350 17.833,389.167 17.833 C 388.983 17.833,388.833 17.758,388.833 17.667 C 388.833 17.575,388.683 17.500,388.500 17.500 C 388.317 17.500,388.167 17.425,388.167 17.333 C 388.167 17.242,387.942 17.167,387.667 17.167 C 387.392 17.167,387.167 17.092,387.167 17.000 C 387.167 16.903,386.611 16.833,385.833 16.833 C 385.056 16.833,384.500 16.764,384.500 16.667 C 384.500 16.559,382.444 16.500,378.667 16.500 C 374.889 16.500,372.833 16.559,372.833 16.667 M248.833 17.000 C 248.833 17.092,248.458 17.167,248.000 17.167 C 247.542 17.167,247.167 17.242,247.167 17.333 C 247.167 17.425,246.942 17.500,246.667 17.500 C 246.392 17.500,246.167 17.575,246.167 17.667 C 246.167 17.758,246.017 17.833,245.833 17.833 C 245.650 17.833,245.500 17.908,245.500 18.000 C 245.500 18.092,245.386 18.167,245.246 18.167 C 244.915 18.167,243.500 19.582,243.500 19.912 C 243.500 20.052,243.425 20.167,243.333 20.167 C 243.242 20.167,243.167 20.317,243.167 20.500 C 243.167 20.683,243.092 20.833,243.000 20.833 C 242.908 20.833,242.833 21.058,242.833 21.333 C 242.833 21.608,242.758 21.833,242.667 21.833 C 242.572 21.833,242.500 22.330,242.500 22.990 C 242.500 23.626,242.425 24.193,242.333 24.250 C 242.223 24.318,242.167 33.113,242.167 50.093 C 242.167 67.142,242.223 75.833,242.333 75.833 C 242.426 75.833,242.500 76.278,242.500 76.833 C 242.500 77.389,242.574 77.833,242.667 77.833 C 242.758 77.833,242.833 78.058,242.833 78.333 C 242.833 78.608,242.908 78.833,243.000 78.833 C 243.092 78.833,243.167 78.983,243.167 79.167 C 243.167 79.350,243.242 79.500,243.333 79.500 C 243.425 79.500,243.500 79.650,243.500 79.833 C 243.500 80.017,243.575 80.167,243.667 80.167 C 243.758 80.167,243.833 80.282,243.833 80.422 C 243.833 80.734,244.904 81.833,245.208 81.833 C 245.328 81.833,245.535 81.983,245.667 82.167 C 245.808 82.362,246.098 82.500,246.370 82.500 C 246.625 82.500,246.833 82.575,246.833 82.667 C 246.833 82.758,247.058 82.833,247.333 82.833 C 247.608 82.833,247.833 82.908,247.833 83.000 C 247.833 83.093,248.278 83.167,248.833 83.167 C 249.389 83.167,249.833 83.241,249.833 83.333 C 249.833 83.442,252.111 83.500,256.333 83.500 C 260.556 83.500,262.833 83.442,262.833 83.333 C 262.833 83.241,263.278 83.167,263.833 83.167 C 264.389 83.167,264.833 83.093,264.833 83.000 C 264.833 82.908,265.058 82.833,265.333 82.833 C 265.608 82.833,265.833 82.758,265.833 82.667 C 265.833 82.575,266.042 82.500,266.297 82.500 C 266.569 82.500,266.859 82.362,267.000 82.167 C 267.132 81.983,267.317 81.831,267.412 81.828 C 267.680 81.820,268.500 81.041,268.500 80.795 C 268.500 80.673,268.650 80.465,268.833 80.333 C 269.017 80.201,269.167 79.960,269.167 79.797 C 269.167 79.633,269.242 79.500,269.333 79.500 C 269.425 79.500,269.500 79.350,269.500 79.167 C 269.500 78.983,269.575 78.833,269.667 78.833 C 269.758 78.833,269.833 78.613,269.833 78.343 C 269.833 78.074,269.908 77.807,270.000 77.750 C 270.092 77.693,270.167 76.943,270.167 76.073 C 270.167 75.136,270.234 74.500,270.333 74.500 C 270.444 74.500,270.500 66.222,270.500 50.000 C 270.500 33.778,270.444 25.500,270.333 25.500 C 270.235 25.500,270.167 24.889,270.167 24.000 C 270.167 23.111,270.099 22.500,270.000 22.500 C 269.908 22.500,269.833 22.275,269.833 22.000 C 269.833 21.725,269.758 21.500,269.667 21.500 C 269.575 21.500,269.500 21.292,269.500 21.037 C 269.500 20.765,269.362 20.474,269.167 20.333 C 268.983 20.201,268.833 19.995,268.833 19.875 C 268.833 19.592,267.408 18.167,267.125 18.167 C 267.005 18.167,266.799 18.017,266.667 17.833 C 266.526 17.638,266.235 17.500,265.963 17.500 C 265.708 17.500,265.500 17.425,265.500 17.333 C 265.500 17.242,265.200 17.167,264.833 17.167 C 264.467 17.167,264.167 17.092,264.167 17.000 C 264.167 16.891,261.500 16.833,256.500 16.833 C 251.500 16.833,248.833 16.891,248.833 17.000 M273.833 50.167 L 273.833 83.500 279.667 83.500 L 285.500 83.500 285.500 70.500 C 285.500 61.944,285.443 57.500,285.333 57.500 C 285.225 57.500,285.167 55.389,285.167 51.500 C 285.167 47.611,285.108 45.500,285.000 45.500 C 284.894 45.500,284.833 44.167,284.833 41.833 C 284.833 39.500,284.894 38.167,285.000 38.167 C 285.105 38.167,285.167 39.222,285.167 41.000 C 285.167 42.778,285.229 43.833,285.333 43.833 C 285.439 43.833,285.500 45.056,285.500 47.167 C 285.500 49.278,285.561 50.500,285.667 50.500 C 285.771 50.500,285.833 51.469,285.833 53.073 C 285.833 54.609,285.901 55.689,286.000 55.750 C 286.097 55.810,286.167 56.752,286.167 58.010 C 286.167 59.337,286.231 60.167,286.333 60.167 C 286.433 60.167,286.500 60.833,286.500 61.833 C 286.500 62.833,286.567 63.500,286.667 63.500 C 286.764 63.500,286.833 64.056,286.833 64.833 C 286.833 65.611,286.903 66.167,287.000 66.167 C 287.094 66.167,287.167 66.636,287.167 67.240 C 287.167 67.831,287.242 68.360,287.333 68.417 C 287.425 68.473,287.500 68.998,287.500 69.583 C 287.500 70.168,287.575 70.693,287.667 70.750 C 287.758 70.807,287.833 71.407,287.833 72.083 C 287.833 72.760,287.908 73.360,288.000 73.417 C 288.092 73.473,288.167 74.040,288.167 74.677 C 288.167 75.337,288.238 75.833,288.333 75.833 C 288.427 75.833,288.500 76.302,288.500 76.907 C 288.500 77.497,288.575 78.027,288.667 78.083 C 288.758 78.140,288.833 78.707,288.833 79.343 C 288.833 80.003,288.905 80.500,289.000 80.500 C 289.096 80.500,289.167 81.032,289.167 81.762 C 289.167 83.598,288.961 83.515,293.366 83.462 L 297.083 83.417 297.133 82.458 C 297.161 81.931,297.255 81.500,297.342 81.500 C 297.429 81.500,297.500 80.979,297.500 80.343 C 297.500 79.707,297.575 79.140,297.667 79.083 C 297.758 79.027,297.833 78.502,297.833 77.917 C 297.833 77.332,297.908 76.807,298.000 76.750 C 298.092 76.693,298.167 76.164,298.167 75.573 C 298.167 74.969,298.239 74.500,298.333 74.500 C 298.431 74.500,298.500 73.944,298.500 73.167 C 298.500 72.389,298.569 71.833,298.667 71.833 C 298.762 71.833,298.833 71.333,298.833 70.667 C 298.833 70.000,298.905 69.500,299.000 69.500 C 299.095 69.500,299.167 69.000,299.167 68.333 C 299.167 67.667,299.238 67.167,299.333 67.167 C 299.428 67.167,299.500 66.670,299.500 66.010 C 299.500 65.374,299.575 64.807,299.667 64.750 C 299.758 64.693,299.833 64.014,299.833 63.240 C 299.833 62.413,299.902 61.833,300.000 61.833 C 300.102 61.833,300.167 61.056,300.167 59.833 C 300.167 58.611,300.231 57.833,300.333 57.833 C 300.437 57.833,300.500 56.892,300.500 55.343 C 300.500 53.863,300.568 52.811,300.667 52.750 C 300.767 52.688,300.833 51.554,300.833 49.907 C 300.833 48.191,300.896 47.167,301.000 47.167 C 301.107 47.167,301.167 45.556,301.167 42.667 C 301.167 38.278,301.175 38.167,301.500 38.167 C 301.778 38.167,301.833 38.278,301.833 38.833 C 301.833 39.200,301.758 39.500,301.667 39.500 C 301.558 39.500,301.500 42.167,301.500 47.167 C 301.500 52.167,301.442 54.833,301.333 54.833 C 301.228 54.833,301.167 56.000,301.167 58.000 C 301.167 60.000,301.105 61.167,301.000 61.167 C 300.891 61.167,300.833 65.000,300.833 72.333 L 300.833 83.500 306.667 83.500 L 312.500 83.500 312.500 50.167 L 312.500 16.833 304.167 16.833 L 295.833 16.833 295.833 17.490 C 295.833 17.851,295.758 18.193,295.667 18.250 C 295.575 18.307,295.500 18.982,295.500 19.750 C 295.500 20.518,295.425 21.193,295.333 21.250 C 295.241 21.307,295.167 22.054,295.167 22.917 C 295.167 23.779,295.092 24.527,295.000 24.583 C 294.908 24.640,294.833 25.315,294.833 26.083 C 294.833 26.852,294.758 27.527,294.667 27.583 C 294.575 27.640,294.500 28.387,294.500 29.250 C 294.500 30.113,294.425 30.860,294.333 30.917 C 294.240 30.975,294.167 31.776,294.167 32.750 C 294.167 33.724,294.094 34.525,294.000 34.583 C 293.901 34.644,293.833 35.668,293.833 37.093 C 293.833 38.587,293.770 39.500,293.667 39.500 C 293.558 39.500,293.500 42.163,293.500 47.157 C 293.500 52.082,293.441 54.850,293.333 54.917 C 293.226 54.983,293.167 54.366,293.167 53.186 C 293.167 52.144,293.095 51.309,293.000 51.250 C 292.894 51.184,292.833 49.002,292.833 45.250 C 292.833 41.498,292.773 39.316,292.667 39.250 C 292.565 39.187,292.500 37.946,292.500 36.083 C 292.500 34.221,292.435 32.979,292.333 32.917 C 292.241 32.860,292.167 32.113,292.167 31.250 C 292.167 30.387,292.092 29.640,292.000 29.583 C 291.907 29.526,291.833 28.748,291.833 27.823 C 291.833 26.830,291.767 26.167,291.667 26.167 C 291.568 26.167,291.500 25.556,291.500 24.667 C 291.500 23.778,291.432 23.167,291.333 23.167 C 291.235 23.167,291.167 22.556,291.167 21.667 C 291.167 20.778,291.099 20.167,291.000 20.167 C 290.902 20.167,290.833 19.579,290.833 18.738 C 290.833 16.646,291.694 16.833,282.095 16.833 L 273.833 16.833 273.833 50.167 M315.833 50.167 L 315.833 83.500 322.333 83.500 L 328.833 83.500 328.833 50.167 L 328.833 16.833 322.333 16.833 L 315.833 16.833 315.833 50.167 M257.289 27.098 C 257.405 27.214,257.500 27.460,257.500 27.645 C 257.500 27.829,257.575 28.027,257.667 28.083 C 257.776 28.151,257.833 35.696,257.833 50.177 C 257.833 64.726,257.777 72.167,257.667 72.167 C 257.575 72.167,257.500 72.283,257.500 72.424 C 257.500 72.829,256.725 73.500,256.258 73.500 C 256.024 73.500,255.833 73.425,255.833 73.333 C 255.833 73.242,255.683 73.167,255.500 73.167 C 255.241 73.167,255.167 73.056,255.167 72.667 C 255.167 72.392,255.092 72.167,255.000 72.167 C 254.890 72.167,254.833 64.722,254.833 50.167 C 254.833 35.611,254.890 28.167,255.000 28.167 C 255.092 28.167,255.167 27.974,255.167 27.738 C 255.167 26.819,256.583 26.392,257.289 27.098 M210.167 90.500 L 210.167 93.167 301.500 93.167 L 392.833 93.167 392.833 90.500 L 392.833 87.833 301.500 87.833 L 210.167 87.833 210.167 90.500 " stroke="none" fill="#040404" fill-rule="evenodd"></path><path id="path4" d="" stroke="none" fill="#388480" fill-rule="evenodd"></path></g></svg>